<?xml version="1.0" encoding="UTF-8"?>
<svg width="60px" height="52px" viewBox="0 0 60 52" version="1.1" xmlns="http://www.w3.org/2000/svg" xmlns:xlink="http://www.w3.org/1999/xlink">
    <!-- Generator: Sketch 53 (72520) - https://sketchapp.com -->
    <title>Logo</title>
    <desc>Created with Sketch.</desc>
    <defs>
        <path d="M711.999041,67 L711.99647,72.9035949 C711.696632,77.6373725 707.558836,81.2463501 702.833333,80.9868378 L694,80.9868378 L694,83.1428571 C694,84.1685288 693.104569,85 692,85 C690.895431,85 690,84.1685288 690,83.1428571 L690,73.8571429 C690,72.8314712 690.895431,72 692,72 C693.104569,72 694,72.8314712 694,73.8571429 L694,77.3900073 L702.934709,77.3922222 C705.749271,77.545149 708.162027,75.4407479 708.333333,72.7920345 L708.333333,67 L703.038462,67 C698.712177,67 695.095821,64.0030987 694.208437,60 L693.625,60 C691.622968,60 690,58.401017 690,56.4285714 L690,47.5 C690,40.5964406 695.680387,35 702.6875,35 L742.5625,35 C745.565548,35 748,37.3984746 748,40.3571429 L748,43.3926305 C748.000273,45.5102538 746.734392,47.429304 744.770612,48.2888458 L741,49.9405415 L741,61.6530418 C741,64.6060853 738.572006,67 735.576923,67 L711.999041,67 Z M711.362609,63.4353612 L735.576923,63.4353612 C736.575284,63.4353612 737.384615,62.6373896 737.384615,61.6530418 L737.384615,51.5242407 L731.6875,54.0198305 L731.6875,54.6428571 C731.6875,57.6015254 729.253048,60 726.25,60 L697.972235,60 C698.752461,62.0089383 700.726511,63.4353612 703.038462,63.4353612 L708.970724,63.4353612 C709.291765,63.1640342 709.709691,63 710.166667,63 C710.623643,63 711.041568,63.1640342 711.362609,63.4353612 Z M695.147796,56.4285714 C695.352229,56.3495002 695.574818,56.3060837 695.807692,56.3060837 C696.040567,56.3060837 696.263156,56.3495002 696.467588,56.4285714 L726.25,56.4285714 C727.251016,56.4285714 728.0625,55.6290799 728.0625,54.6428571 L728.0625,52.8595238 C728.0625,52.153922 728.484221,51.5144848 729.138638,51.2278208 L743.298375,45.0252266 C743.953131,44.7386416 744.375091,44.0989582 744.375,43.3928571 L744.375,40.3571429 C744.375,39.3709201 743.563516,38.5714286 742.5625,38.5714286 L702.6875,38.5714286 C697.682419,38.5714286 693.625,42.5688862 693.625,47.5 L693.625,56.4285714 L695.147796,56.4285714 Z M744,52.8333333 C744,51.8208113 744.895431,51 746,51 C747.104569,51 748,51.8208113 748,52.8333333 L748,60.1666667 C748,61.1791887 747.104569,62 746,62 C744.895431,62 744,61.1791887 744,60.1666667 L744,52.8333333 Z" id="path-1"></path>
        <filter x="-3.4%" y="-2.0%" width="106.9%" height="108.0%" filterUnits="objectBoundingBox" id="filter-2">
            <feOffset dx="0" dy="1" in="SourceAlpha" result="shadowOffsetOuter1"></feOffset>
            <feGaussianBlur stdDeviation="0.5" in="shadowOffsetOuter1" result="shadowBlurOuter1"></feGaussianBlur>
            <feColorMatrix values="0 0 0 0 0.0416274523   0 0 0 0 0.536231884   0 0 0 0 0.378470126  0 0 0 0.346181163 0" type="matrix" in="shadowBlurOuter1"></feColorMatrix>
        </filter>
    </defs>
    <g id="Page-1" stroke="none" stroke-width="1" fill="none" fill-rule="evenodd">
        <g id="Header" transform="translate(-689.000000, -35.000000)" fill-rule="nonzero">
            <g id="Logo">
                <g>
                    <use fill="black" fill-opacity="1" filter="url(#filter-2)" xlink:href="#path-1"></use>
                    <use fill="#FFFFFF" xlink:href="#path-1"></use>
                </g>
            </g>
        </g>
    </g>
</svg>