<?xml version="1.0" encoding="UTF-8"?>
<svg width="24px" height="24px" viewBox="0 0 24 24" version="1.1" xmlns="http://www.w3.org/2000/svg" xmlns:xlink="http://www.w3.org/1999/xlink">
    <!-- Generator: Sketch 53 (72520) - https://sketchapp.com -->
    <title>Icons/Regular/Search</title>
    <desc>Created with Sketch.</desc>
    <g id="Icons/Regular/Search" stroke="none" stroke-width="1" fill="none" fill-rule="evenodd">
        <g id="search" transform="translate(-3.000000, -3.000000)" fill="#000000" fill-rule="nonzero">
            <path d="M20.2634618,19.2018745 L26.7803678,25.7197076 C27.0732402,26.0126217 27.0732064,26.4874954 26.7802924,26.7803678 C26.4873783,27.0732402 26.0125046,27.0732064 25.7196322,26.7802924 L19.2031291,20.2628622 C18.4576905,20.9018453 17.6029279,21.4389085 16.6512202,21.8433746 C11.663404,23.963146 5.90156577,21.6381362 3.78179442,16.6503199 C1.66202307,11.6625037 3.98703286,5.90066546 8.97484913,3.78089411 C13.9626654,1.66112277 19.7245036,3.98613256 21.8442749,8.97394883 C23.3518567,12.5212845 22.6112429,16.4601249 20.2634618,19.2018745 Z M18.7384825,18.6457675 C21.0282438,16.3181658 21.8202117,12.7523433 20.4637735,9.56064793 C18.6680271,5.33526154 13.7869346,3.36564915 9.56154824,5.16139553 C5.33616185,6.95714191 3.36654946,11.8382344 5.16229583,16.0636208 C6.95804221,20.2890072 11.8391347,22.2586196 16.0645211,20.4628732 C17.0558231,20.04158 17.922967,19.450469 18.6464601,18.7378476 C18.6603809,18.7212975 18.6751301,18.7052075 18.6907076,18.6896322 C18.706145,18.6741971 18.7220877,18.6595755 18.7384825,18.6457675 Z" id="Combined-Shape"></path>
        </g>
    </g>
</svg>