<?xml version="1.0" encoding="UTF-8"?>
<svg width="24px" height="24px" viewBox="0 0 24 24" version="1.1" xmlns="http://www.w3.org/2000/svg" xmlns:xlink="http://www.w3.org/1999/xlink">
    <!-- Generator: Sketch 53 (72520) - https://sketchapp.com -->
    <title>Icons/Misc/Sorting</title>
    <desc>Created with Sketch.</desc>
    <g id="Icons/Misc/Sorting" stroke="none" stroke-width="1" fill="none" fill-rule="evenodd">
        <path d="M4.5,5 L19.5,5 C20.3284271,5 21,5.67157288 21,6.5 C21,7.32842712 20.3284271,8 19.5,8 L4.5,8 C3.67157288,8 3,7.32842712 3,6.5 C3,5.67157288 3.67157288,5 4.5,5 Z M7.5,11 L16.5,11 C17.3284271,11 18,11.6715729 18,12.5 C18,13.3284271 17.3284271,14 16.5,14 L7.5,14 C6.67157288,14 6,13.3284271 6,12.5 C6,11.6715729 6.67157288,11 7.5,11 Z M10.5,17 L13.5,17 C14.3284271,17 15,17.6715729 15,18.5 C15,19.3284271 14.3284271,20 13.5,20 L10.5,20 C9.67157288,20 9,19.3284271 9,18.5 C9,17.6715729 9.67157288,17 10.5,17 Z" id="Combined-Shape" fill="#000000" fill-rule="nonzero"></path>
    </g>
</svg>